<svg xmlns="http://www.w3.org/2000/svg" class="leaflet-zoom-animated" width="1982" height="976" viewBox="-40 -20 1982 976" style="transform: translate3d(-40px, -20px, 0px);"><g><path stroke-linejoin="round" stroke-linecap="round" fill-rule="evenodd" stroke="#333" stroke-opacity="1" stroke-width="1" fill="transparent" fill-opacity="0.2" class="leaflet-clickable" d="M790 667L788 666L784 668L785 669L784 668L781 670L782 671L779 672L780 674L778 676L779 678L777 678L777 681L770 683L767 673L767 666L764 659L762 660L760 658L761 652L757 647L752 646L750 643L750 641L752 641L752 638L748 638L749 635L752 635L748 635L748 632L743 630L742 628L738 628L738 624L738 628L737 624L735 623L735 630L721 627L719 629L707 632L705 631L701 637L700 647L697 648L697 651L699 653L697 659L698 660L693 664L689 664L689 666L685 670L683 667L678 670L675 668L673 664L667 665L665 663L663 663L661 667L648 669L637 665L635 670L629 667L623 668L620 667L613 656L613 648L611 642L608 639L601 636L598 636L596 638L594 634L596 631L591 630L593 626L592 625L588 625L584 622L585 620L579 620L575 623L570 621L566 624L562 620L562 618L560 620L557 619L559 618L559 616L556 615L557 612L562 609L561 606L558 604L559 601L561 599L566 599L566 593L570 590L576 579L579 579L581 577L581 574L583 574L583 576L585 573L596 572L605 565L604 559L610 553L610 551L613 549L619 539L626 539L636 536L636 532L637 530L638 531L639 527L643 525L651 525L651 523L652 524L652 519L655 517L656 513L668 511L673 496L669 497L663 503L651 508L647 507L642 512L636 512L631 518L626 517L619 521L619 519L617 519L617 522L614 523L610 530L606 532L603 531L606 520L605 514L609 509L613 508L614 499L615 500L617 494L615 478L611 476L611 472L608 472L606 474L605 473L606 471L604 465L600 462L601 457L599 457L597 452L600 451L599 448L600 449L603 446L605 438L614 429L617 422L620 422L622 420L625 421L636 415L635 413L637 409L640 406L642 406L642 402L645 399L643 396L647 393L646 392L648 392L648 390L652 386L653 379L656 375L655 372L661 368L661 357L666 354L679 351L681 354L685 354L689 347L684 346L686 344L684 340L686 339L689 342L688 341L691 337L689 337L689 335L690 332L694 330L693 329L697 331L697 334L703 341L704 338L708 336L716 325L719 324L722 317L724 317L725 313L730 310L729 308L731 309L732 304L736 298L740 300L747 298L757 300L761 298L778 299L786 296L792 299L795 297L798 290L801 287L804 277L806 276L805 274L808 272L819 272L822 266L825 265L824 262L828 260L826 260L828 255L836 246L836 248L847 257L856 256L862 259L865 264L878 267L881 266L884 268L890 266L896 274L900 271L901 266L903 265L916 262L928 264L933 268L937 281L947 290L948 302L955 302L957 304L957 309L962 311L960 315L946 315L938 320L936 323L931 335L935 352L938 352L935 354L935 357L940 361L943 368L949 365L949 363L951 362L952 363L950 363L948 368L949 369L955 363L956 364L954 366L954 373L957 370L960 372L964 372L963 375L966 382L981 380L980 378L982 379L982 381L989 381L998 377L1000 381L1004 380L1011 370L1015 369L1017 366L1015 366L1018 365L1018 361L1014 358L1013 352L1021 351L1023 347L1034 344L1050 332L1047 328L1047 324L1050 324L1053 321L1050 320L1047 317L1048 316L1059 316L1068 310L1080 308L1085 304L1096 299L1102 301L1109 300L1114 302L1114 306L1118 308L1122 313L1131 312L1133 314L1132 323L1134 327L1138 329L1146 329L1151 327L1150 323L1154 323L1158 327L1154 327L1156 333L1158 333L1161 336L1160 338L1162 341L1170 345L1176 339L1187 342L1203 341L1209 339L1211 335L1215 333L1216 334L1216 330L1218 332L1221 332L1221 330L1223 333L1225 333L1225 336L1222 338L1226 346L1227 343L1232 342L1236 344L1236 347L1240 348L1248 348L1253 346L1255 348L1260 349L1268 346L1270 348L1271 346L1274 348L1275 350L1272 353L1271 351L1265 353L1265 357L1262 361L1263 363L1261 365L1264 365L1263 367L1267 371L1267 373L1265 373L1264 375L1262 374L1263 377L1261 378L1255 378L1254 381L1252 390L1263 390L1259 395L1260 398L1257 408L1255 408L1255 405L1249 405L1251 409L1241 415L1234 413L1233 414L1230 412L1226 413L1226 407L1224 409L1220 407L1223 402L1219 402L1218 405L1214 406L1214 410L1211 400L1208 400L1207 402L1191 408L1185 415L1177 417L1176 422L1178 426L1173 424L1173 422L1169 422L1171 424L1170 426L1167 426L1169 424L1166 424L1166 422L1162 420L1171 415L1168 415L1160 423L1154 426L1156 428L1155 430L1152 428L1146 429L1142 433L1133 435L1121 444L1112 442L1112 439L1110 438L1105 439L1117 447L1115 450L1116 455L1113 458L1110 458L1111 461L1113 461L1111 461L1107 467L1105 465L1106 462L1103 456L1097 456L1097 459L1092 462L1091 467L1095 470L1095 472L1087 472L1087 476L1090 479L1092 491L1091 495L1084 495L1082 497L1077 496L1078 498L1071 498L1068 501L1059 504L1058 502L1054 502L1061 489L1057 482L1054 484L1056 488L1052 488L1051 486L1049 487L1047 485L1040 489L1041 492L1038 496L1042 498L1044 501L1050 502L1046 509L1050 506L1052 507L1050 509L1051 511L1052 508L1053 509L1054 507L1056 507L1055 512L1051 512L1046 521L1043 521L1043 519L1047 515L1037 522L1033 523L1031 528L1032 533L1030 540L1026 540L1026 538L1022 535L1020 538L1023 539L1020 545L1021 548L1017 552L1012 551L1012 549L1010 550L1010 554L1008 556L1005 555L1005 551L997 555L995 564L989 575L990 580L986 582L986 587L982 585L975 592L973 602L975 602L972 604L976 607L973 608L971 612L964 612L963 608L959 607L952 608L949 610L948 614L937 614L924 617L924 627L921 630L919 637L916 637L916 643L913 643L911 647L911 649L915 649L917 651L908 656L906 654L903 655L900 652L893 652L893 654L890 657L888 656L889 661L887 663L886 662L884 666L886 675L882 684L872 684L867 687L866 686L865 689L861 689L862 681L858 678L861 675L862 671L853 668L856 663L854 661L855 659L847 659L842 656L837 657L837 660L827 659L828 674L817 670L815 676L810 677L809 680L806 680L804 678L799 679L791 671L791 668z"/></g><g><path stroke-linejoin="round" stroke-linecap="round" fill-rule="evenodd" stroke="#333" stroke-opacity="1" stroke-width="1" fill="transparent" fill-opacity="0.2" class="leaflet-clickable" d="M1226 338L1227 336L1229 338z"/></g><g><path stroke-linejoin="round" stroke-linecap="round" fill-rule="evenodd" stroke="#333" stroke-opacity="1" stroke-width="1" fill="transparent" fill-opacity="0.2" class="leaflet-clickable" d="M1233 423L1233 424z"/></g><g><path stroke-linejoin="round" stroke-linecap="round" fill-rule="evenodd" stroke="#333" stroke-opacity="1" stroke-width="1" fill="transparent" fill-opacity="0.2" class="leaflet-clickable" d="M1165 332L1167 331z"/></g><g><path stroke-linejoin="round" stroke-linecap="round" fill-rule="evenodd" stroke="#333" stroke-opacity="1" stroke-width="1" fill="transparent" fill-opacity="0.2" class="leaflet-clickable" d="M1094 289L1093 288L1095 286L1097 289L1097 293L1093 290z"/></g><g><path stroke-linejoin="round" stroke-linecap="round" fill-rule="evenodd" stroke="#333" stroke-opacity="1" stroke-width="1" fill="transparent" fill-opacity="0.2" class="leaflet-clickable" d="M1091 282L1093 282L1094 284L1091 284z"/></g><g><path stroke-linejoin="round" stroke-linecap="round" fill-rule="evenodd" stroke="#333" stroke-opacity="1" stroke-width="1" fill="transparent" fill-opacity="0.2" class="leaflet-clickable" d="M1087 283L1086 285z"/></g><g><path stroke-linejoin="round" stroke-linecap="round" fill-rule="evenodd" stroke="#333" stroke-opacity="1" stroke-width="1" fill="transparent" fill-opacity="0.2" class="leaflet-clickable" d="M1163 426L1164 425z"/></g><g><path stroke-linejoin="round" stroke-linecap="round" fill-rule="evenodd" stroke="#333" stroke-opacity="1" stroke-width="1" fill="transparent" fill-opacity="0.2" class="leaflet-clickable" d="M1069 307L1067 305L1070 305z"/></g><g><path stroke-linejoin="round" stroke-linecap="round" fill-rule="evenodd" stroke="#333" stroke-opacity="1" stroke-width="1" fill="transparent" fill-opacity="0.2" class="leaflet-clickable" d="M1081 498L1080 498z"/></g><g><path stroke-linejoin="round" stroke-linecap="round" fill-rule="evenodd" stroke="#333" stroke-opacity="1" stroke-width="1" fill="transparent" fill-opacity="0.2" class="leaflet-clickable" d="M1118 462L1114 461L1117 460z"/></g><g><path stroke-linejoin="round" stroke-linecap="round" fill-rule="evenodd" stroke="#333" stroke-opacity="1" stroke-width="1" fill="transparent" fill-opacity="0.2" class="leaflet-clickable" d="M1119 453L1118 453z"/></g><g><path stroke-linejoin="round" stroke-linecap="round" fill-rule="evenodd" stroke="#333" stroke-opacity="1" stroke-width="1" fill="transparent" fill-opacity="0.2" class="leaflet-clickable" d="M1108 520L1107 521z"/></g><g><path stroke-linejoin="round" stroke-linecap="round" fill-rule="evenodd" stroke="#333" stroke-opacity="1" stroke-width="1" fill="transparent" fill-opacity="0.2" class="leaflet-clickable" d="M1090 289L1089 287L1091 287L1090 288z"/></g><g><path stroke-linejoin="round" stroke-linecap="round" fill-rule="evenodd" stroke="#333" stroke-opacity="1" stroke-width="1" fill="transparent" fill-opacity="0.2" class="leaflet-clickable" d="M1004 554L1004 555z"/></g><g><path stroke-linejoin="round" stroke-linecap="round" fill-rule="evenodd" stroke="#333" stroke-opacity="1" stroke-width="1" fill="transparent" fill-opacity="0.2" class="leaflet-clickable" d="M1096 263L1096 257L1099 262L1097 262z"/></g><g><path stroke-linejoin="round" stroke-linecap="round" fill-rule="evenodd" stroke="#333" stroke-opacity="1" stroke-width="1" fill="transparent" fill-opacity="0.2" class="leaflet-clickable" d="M1111 241L1109 238L1110 237L1111 239z"/></g><g><path stroke-linejoin="round" stroke-linecap="round" fill-rule="evenodd" stroke="#333" stroke-opacity="1" stroke-width="1" fill="transparent" fill-opacity="0.2" class="leaflet-clickable" d="M1042 535L1044 532L1045 536L1043 538L1042 536z"/></g><g><path stroke-linejoin="round" stroke-linecap="round" fill-rule="evenodd" stroke="#333" stroke-opacity="1" stroke-width="1" fill="transparent" fill-opacity="0.2" class="leaflet-clickable" d="M1104 242L1104 239L1106 241z"/></g><g><path stroke-linejoin="round" stroke-linecap="round" fill-rule="evenodd" stroke="#333" stroke-opacity="1" stroke-width="1" fill="transparent" fill-opacity="0.2" class="leaflet-clickable" d="M1110 236L1111 234L1112 236z"/></g><g><path stroke-linejoin="round" stroke-linecap="round" fill-rule="evenodd" stroke="#333" stroke-opacity="1" stroke-width="1" fill="transparent" fill-opacity="0.2" class="leaflet-clickable" d="M1085 287L1082 284L1084 282L1085 286z"/></g><g><path stroke-linejoin="round" stroke-linecap="round" fill-rule="evenodd" stroke="#333" stroke-opacity="1" stroke-width="1" fill="transparent" fill-opacity="0.2" class="leaflet-clickable" d="M1101 248L1101 244L1104 244L1105 245L1102 247z"/></g><g><path stroke-linejoin="round" stroke-linecap="round" fill-rule="evenodd" stroke="#333" stroke-opacity="1" stroke-width="1" fill="transparent" fill-opacity="0.2" class="leaflet-clickable" d="M1175 428L1176 426z"/></g><g><path stroke-linejoin="round" stroke-linecap="round" fill-rule="evenodd" stroke="#333" stroke-opacity="1" stroke-width="1" fill="transparent" fill-opacity="0.2" class="leaflet-clickable" d="M1114 278L1112 276L1114 278z"/></g><g><path stroke-linejoin="round" stroke-linecap="round" fill-rule="evenodd" stroke="#333" stroke-opacity="1" stroke-width="1" fill="transparent" fill-opacity="0.2" class="leaflet-clickable" d="M1098 482L1098 483z"/></g><g><path stroke-linejoin="round" stroke-linecap="round" fill-rule="evenodd" stroke="#333" stroke-opacity="1" stroke-width="1" fill="transparent" fill-opacity="0.2" class="leaflet-clickable" d="M1011 360L1012 359z"/></g><g><path stroke-linejoin="round" stroke-linecap="round" fill-rule="evenodd" stroke="#333" stroke-opacity="1" stroke-width="1" fill="transparent" fill-opacity="0.2" class="leaflet-clickable" d="M1154 478L1155 479z"/></g><g><path stroke-linejoin="round" stroke-linecap="round" fill-rule="evenodd" stroke="#333" stroke-opacity="1" stroke-width="1" fill="transparent" fill-opacity="0.2" class="leaflet-clickable" d="M1254 344L1254 344z"/></g><g><path stroke-linejoin="round" stroke-linecap="round" fill-rule="evenodd" stroke="#333" stroke-opacity="1" stroke-width="1" fill="transparent" fill-opacity="0.2" class="leaflet-clickable" d="M1086 265L1086 263L1087 264z"/></g><g><path stroke-linejoin="round" stroke-linecap="round" fill-rule="evenodd" stroke="#333" stroke-opacity="1" stroke-width="1" fill="transparent" fill-opacity="0.2" class="leaflet-clickable" d="M1108 277L1107 277z"/></g><g><path stroke-linejoin="round" stroke-linecap="round" fill-rule="evenodd" stroke="#333" stroke-opacity="1" stroke-width="1" fill="transparent" fill-opacity="0.2" class="leaflet-clickable" d="M1086 274L1087 274z"/></g><g><path stroke-linejoin="round" stroke-linecap="round" fill-rule="evenodd" stroke="#333" stroke-opacity="1" stroke-width="1" fill="transparent" fill-opacity="0.2" class="leaflet-clickable" d="M618 520L619 521L617 522z"/></g><g><path stroke-linejoin="round" stroke-linecap="round" fill-rule="evenodd" stroke="#999" stroke-opacity="1" stroke-width="1" stroke-dasharray="1,6" fill="transparent" fill-opacity="0.2" class="leaflet-clickable" d="M779 334L781 337L784 338L783 340L780 341L782 342L781 343L787 344L787 349L792 354L792 360L795 367L794 366L791 370L796 378L795 385L785 387L783 392L788 396L790 401L792 399L798 400L800 398L802 400L803 398L805 398L806 402L803 403L808 407L807 411L810 416L814 417L818 423L823 424L818 431L820 440L817 440L820 441L820 443L818 444L824 451L822 452L824 454L823 458L827 460L829 459L836 468L836 470L840 470L838 472L839 477L843 478L842 486L839 486L837 489L839 495L838 496L839 498L841 497L841 509L838 506L836 506L833 508L828 507L824 510L824 506L822 504L821 505L818 503L814 503L805 499L803 496L796 499L796 492L799 491L795 487L795 484L792 485L790 483L793 481L789 473L790 470L786 464L786 457L781 455L780 458L777 459L777 462L774 463L771 467L771 469L767 471L763 470L762 474L752 481L751 479L745 480L743 479L743 477L735 473L728 477L720 475L716 480L711 480L707 484L707 486L711 490L710 492L712 492L711 493L715 495L712 500L706 501L703 504L703 502L699 498L696 499L696 501L691 505L688 504L688 496L684 489L689 484L693 476L708 471L709 467L713 462L717 462L720 460L718 454L721 451L719 450L720 448L724 446L724 443L726 443L727 440L733 437L735 430L744 424L742 421L744 415L749 415L749 413L751 413L751 405L748 403L749 400L745 400L743 395L750 391L747 386L748 384L760 380L760 374L757 371L758 366L757 363L755 363L753 357L755 355L756 347L762 345L766 340L773 340L776 335L778 335z"/></g><g><path stroke-linejoin="round" stroke-linecap="round" fill-rule="evenodd" stroke="#999" stroke-opacity="1" stroke-width="1" stroke-dasharray="1,6" fill="transparent" fill-opacity="0.2" class="leaflet-clickable" d="M1105 439L1117 447L1115 450L1116 455L1113 458L1110 458L1111 461L1113 461L1111 461L1107 467L1105 465L1106 462L1103 456L1097 456L1097 459L1092 462L1091 467L1095 470L1095 472L1087 472L1087 476L1090 479L1092 491L1091 495L1084 495L1082 497L1077 496L1078 498L1071 498L1068 501L1059 504L1058 502L1054 502L1061 489L1057 482L1054 484L1056 488L1052 488L1051 486L1049 487L1047 485L1044 486L1040 489L1041 492L1038 496L1042 498L1044 501L1050 502L1046 509L1050 506L1052 507L1050 509L1051 511L1052 508L1053 509L1054 507L1056 507L1055 512L1051 512L1046 521L1043 521L1043 519L1047 515L1037 522L1033 523L1031 528L1032 533L1030 540L1026 540L1026 538L1022 535L1020 538L1023 539L1020 545L1021 548L1017 552L1012 551L1012 549L1010 550L1010 554L1008 556L1005 555L1005 551L1003 551L999 555L993 553L991 555L991 553L989 555L986 555L986 553L984 552L984 540L986 539L989 541L994 541L991 536L994 527L998 526L999 524L1004 524L1003 519L1002 517L1000 517L1001 515L999 513L999 507L1002 504L1001 502L1000 503L998 501L994 501L994 498L997 496L995 494L998 488L1005 491L1009 489L1011 490L1012 486L1010 482L1014 474L1018 473L1019 465L1023 465L1021 461L1023 458L1029 457L1029 451L1027 452L1023 450L1022 453L1020 450L1003 445L1003 443L993 435L989 428L986 427L985 420L987 417L988 418L991 412L990 401L992 394L1002 394L1003 397L1007 396L1007 394L1019 396L1026 393L1030 395L1032 393L1041 394L1043 393L1043 391L1044 392L1047 389L1049 381L1052 382L1053 380L1055 380L1055 382L1059 386L1063 383L1064 384L1065 382L1073 381L1075 378L1078 382L1076 389L1078 391L1081 389L1084 393L1082 394L1082 396L1081 395L1079 399L1080 404L1084 405L1084 408L1080 409L1080 411L1082 412L1081 413L1083 414L1082 417L1079 418L1077 424L1081 425L1081 430L1088 435L1088 438L1086 438L1086 444L1092 441L1091 440L1094 438L1099 442z"/></g><g><path stroke-linejoin="round" stroke-linecap="round" fill-rule="evenodd" stroke="#999" stroke-opacity="1" stroke-width="1" stroke-dasharray="1,6" fill="transparent" fill-opacity="0.2" class="leaflet-clickable" d="M1081 498L1080 498z"/></g><g><path stroke-linejoin="round" stroke-linecap="round" fill-rule="evenodd" stroke="#999" stroke-opacity="1" stroke-width="1" stroke-dasharray="1,6" fill="transparent" fill-opacity="0.2" class="leaflet-clickable" d="M1118 462L1114 461L1117 460z"/></g><g><path stroke-linejoin="round" stroke-linecap="round" fill-rule="evenodd" stroke="#999" stroke-opacity="1" stroke-width="1" stroke-dasharray="1,6" fill="transparent" fill-opacity="0.2" class="leaflet-clickable" d="M1119 453L1118 453z"/></g><g><path stroke-linejoin="round" stroke-linecap="round" fill-rule="evenodd" stroke="#999" stroke-opacity="1" stroke-width="1" stroke-dasharray="1,6" fill="transparent" fill-opacity="0.2" class="leaflet-clickable" d="M1108 520L1107 521z"/></g><g><path stroke-linejoin="round" stroke-linecap="round" fill-rule="evenodd" stroke="#999" stroke-opacity="1" stroke-width="1" stroke-dasharray="1,6" fill="transparent" fill-opacity="0.2" class="leaflet-clickable" d="M1004 554L1004 555z"/></g><g><path stroke-linejoin="round" stroke-linecap="round" fill-rule="evenodd" stroke="#999" stroke-opacity="1" stroke-width="1" stroke-dasharray="1,6" fill="transparent" fill-opacity="0.2" class="leaflet-clickable" d="M1042 535L1044 532L1045 536L1043 538L1042 536z"/></g><g><path stroke-linejoin="round" stroke-linecap="round" fill-rule="evenodd" stroke="#999" stroke-opacity="1" stroke-width="1" stroke-dasharray="1,6" fill="transparent" fill-opacity="0.2" class="leaflet-clickable" d="M1098 482L1098 483z"/></g><g><path stroke-linejoin="round" stroke-linecap="round" fill-rule="evenodd" stroke="#999" stroke-opacity="1" stroke-width="1" stroke-dasharray="1,6" fill="transparent" fill-opacity="0.2" class="leaflet-clickable" d="M820 430L825 430L830 422L831 424L832 422L829 418L830 412L838 410L842 405L840 403L840 405L840 403L837 400L838 398L833 396L831 392L832 388L822 388L807 385L805 379L808 377L809 372L815 364L821 367L826 367L831 363L835 365L840 363L841 365L845 365L843 371L844 370L847 372L848 370L853 374L851 377L853 382L850 384L856 384L858 388L860 388L858 390L858 394L860 395L859 397L865 399L868 397L868 395L872 395L872 399L875 398L877 400L878 398L881 398L882 402L891 402L889 406L889 412L885 414L886 417L878 422L873 421L873 423L870 424L872 427L866 427L866 430L868 430L866 430L865 432L867 434L866 433L864 436L865 438L862 443L863 447L865 448L865 455L867 456L866 462L869 463L867 465L870 469L869 470L873 470L872 472L875 476L874 479L878 479L881 482L880 485L883 493L882 494L890 494L889 500L893 501L893 506L888 506L892 512L891 513L887 514L883 510L881 510L870 517L864 513L864 508L856 505L849 510L848 513L841 513L841 497L840 498L838 496L839 495L837 489L839 486L842 486L843 479L839 477L838 472L840 471L838 469L836 470L830 459L827 460L823 458L823 449L820 447L820 445L818 444L819 441L817 440L819 440L820 438L818 433L818 431L820 430z"/></g><g><path stroke-linejoin="round" stroke-linecap="round" fill-rule="evenodd" stroke="#999" stroke-opacity="1" stroke-width="1" fill="transparent" fill-opacity="0.2" class="leaflet-clickable" d="M790 667L792 663L789 662L785 654L783 652L780 652L776 648L775 649L771 644L769 645L772 641L767 637L764 627L758 629L758 627L754 627L749 623L751 619L744 614L746 613L739 607L739 600L741 602L743 599L751 601L756 596L768 595L775 591L779 591L778 588L781 587L783 589L784 585L791 586L796 593L795 595L803 598L803 600L808 603L814 610L814 612L818 614L819 617L822 617L820 624L821 625L818 629L821 634L827 639L827 641L825 642L826 645L830 647L830 655L828 660L827 659L828 674L817 670L815 676L810 677L809 680L806 680L804 678L799 679L791 671L791 668z" stroke-dasharray="1,6"/></g><g><path stroke-linejoin="round" stroke-linecap="round" fill-rule="evenodd" stroke="#999" stroke-opacity="1" stroke-width="1" stroke-dasharray="1,6" fill="transparent" fill-opacity="0.2" class="leaflet-clickable" d="M940 361L920 362L916 363L908 369L903 376L907 379L906 385L901 388L899 387L896 389L897 391L895 391L895 393L899 394L897 396L896 395L896 402L891 402L889 400L888 402L882 402L881 399L878 398L877 400L872 399L872 394L876 389L876 381L881 374L877 369L879 364L875 361L874 355L869 354L869 352L866 353L865 351L860 354L860 352L858 351L860 351L861 349L859 345L856 345L856 343L858 336L862 332L858 332L857 329L860 326L862 320L872 320L875 312L878 309L877 305L879 305L875 296L869 299L868 295L868 297L867 296L868 293L866 289L866 280L883 278L884 274L866 276L866 271L868 269L866 267L868 264L878 267L881 266L884 268L890 266L896 274L900 271L901 266L916 262L928 264L933 268L937 281L948 292L948 302L955 302L957 304L957 309L962 311L960 315L944 316L938 320L934 327L931 338L935 352L938 352L935 354L935 357L938 360z"/></g><g><path stroke-linejoin="round" stroke-linecap="round" fill-rule="evenodd" stroke="#999" stroke-opacity="1" stroke-width="1" stroke-dasharray="1,6" fill="transparent" fill-opacity="0.2" class="leaflet-clickable" d="M883 274L883 278L866 280L866 276z"/></g><g><path stroke-linejoin="round" stroke-linecap="round" fill-rule="evenodd" stroke="#999" stroke-opacity="1" stroke-width="1" stroke-dasharray="1,6" fill="transparent" fill-opacity="0.2" class="leaflet-clickable" d="M989 381L998 377L1000 381L1004 380L1011 370L1015 369L1017 366L1015 366L1018 365L1018 361L1014 358L1013 352L1021 351L1023 347L1034 344L1050 332L1047 328L1047 324L1050 324L1053 321L1050 320L1047 317L1048 316L1059 316L1068 310L1080 308L1085 304L1096 299L1102 301L1109 300L1114 302L1114 306L1118 308L1122 313L1131 312L1133 314L1132 323L1134 327L1138 329L1146 329L1151 327L1150 323L1154 323L1158 327L1154 327L1156 333L1158 333L1161 336L1160 338L1162 341L1170 345L1176 339L1187 342L1203 341L1201 351L1198 353L1194 361L1191 361L1189 367L1187 368L1189 373L1187 376L1189 376L1187 380L1182 381L1182 379L1180 383L1177 380L1174 381L1173 379L1171 383L1164 383L1159 381L1158 384L1154 384L1153 382L1152 383L1151 379L1148 381L1147 379L1136 387L1135 395L1144 405L1147 406L1152 404L1154 409L1151 411L1153 415L1156 419L1160 419L1162 421L1154 426L1156 428L1155 430L1152 428L1146 429L1142 433L1133 435L1121 444L1112 442L1112 439L1110 438L1099 442L1096 439L1092 438L1092 441L1086 444L1086 439L1088 438L1088 435L1086 433L1085 434L1085 432L1081 430L1081 426L1077 424L1078 420L1083 415L1081 414L1082 412L1080 409L1084 408L1084 406L1080 404L1079 397L1080 395L1082 396L1082 394L1084 393L1083 390L1078 391L1076 389L1078 382L1075 378L1070 382L1068 381L1064 384L1061 383L1060 386L1055 380L1053 380L1052 382L1049 381L1049 385L1046 391L1043 391L1042 394L1032 393L1031 395L1026 393L1021 396L1007 394L1007 396L1003 397L1002 394L993 394L992 391L988 389L988 384z"/></g><g><path stroke-linejoin="round" stroke-linecap="round" fill-rule="evenodd" stroke="#999" stroke-opacity="1" stroke-width="1" stroke-dasharray="1,6" fill="transparent" fill-opacity="0.2" class="leaflet-clickable" d="M1165 332L1167 331z"/></g><g><path stroke-linejoin="round" stroke-linecap="round" fill-rule="evenodd" stroke="#999" stroke-opacity="1" stroke-width="1" stroke-dasharray="1,6" fill="transparent" fill-opacity="0.2" class="leaflet-clickable" d="M1094 289L1093 288L1095 286L1097 289L1097 293L1093 290z"/></g><g><path stroke-linejoin="round" stroke-linecap="round" fill-rule="evenodd" stroke="#999" stroke-opacity="1" stroke-width="1" stroke-dasharray="1,6" fill="transparent" fill-opacity="0.2" class="leaflet-clickable" d="M1091 282L1093 282L1094 284L1091 284z"/></g><g><path stroke-linejoin="round" stroke-linecap="round" fill-rule="evenodd" stroke="#999" stroke-opacity="1" stroke-width="1" stroke-dasharray="1,6" fill="transparent" fill-opacity="0.2" class="leaflet-clickable" d="M1087 283L1086 285z"/></g><g><path stroke-linejoin="round" stroke-linecap="round" fill-rule="evenodd" stroke="#999" stroke-opacity="1" stroke-width="1" stroke-dasharray="1,6" fill="transparent" fill-opacity="0.2" class="leaflet-clickable" d="M1069 307L1067 305L1070 305z"/></g><g><path stroke-linejoin="round" stroke-linecap="round" fill-rule="evenodd" stroke="#999" stroke-opacity="1" stroke-width="1" stroke-dasharray="1,6" fill="transparent" fill-opacity="0.2" class="leaflet-clickable" d="M1090 289L1089 287L1091 287L1090 288z"/></g><g><path stroke-linejoin="round" stroke-linecap="round" fill-rule="evenodd" stroke="#999" stroke-opacity="1" stroke-width="1" stroke-dasharray="1,6" fill="transparent" fill-opacity="0.2" class="leaflet-clickable" d="M1096 263L1096 257L1099 262L1097 262z"/></g><g><path stroke-linejoin="round" stroke-linecap="round" fill-rule="evenodd" stroke="#999" stroke-opacity="1" stroke-width="1" stroke-dasharray="1,6" fill="transparent" fill-opacity="0.2" class="leaflet-clickable" d="M1111 241L1109 238L1110 237L1111 239z"/></g><g><path stroke-linejoin="round" stroke-linecap="round" fill-rule="evenodd" stroke="#999" stroke-opacity="1" stroke-width="1" stroke-dasharray="1,6" fill="transparent" fill-opacity="0.2" class="leaflet-clickable" d="M1104 242L1104 239L1106 241z"/></g><g><path stroke-linejoin="round" stroke-linecap="round" fill-rule="evenodd" stroke="#999" stroke-opacity="1" stroke-width="1" stroke-dasharray="1,6" fill="transparent" fill-opacity="0.2" class="leaflet-clickable" d="M1085 287L1082 284L1084 282L1085 286z"/></g><g><path stroke-linejoin="round" stroke-linecap="round" fill-rule="evenodd" stroke="#999" stroke-opacity="1" stroke-width="1" stroke-dasharray="1,6" fill="transparent" fill-opacity="0.2" class="leaflet-clickable" d="M1110 236L1111 234L1112 236z"/></g><g><path stroke-linejoin="round" stroke-linecap="round" fill-rule="evenodd" stroke="#999" stroke-opacity="1" stroke-width="1" stroke-dasharray="1,6" fill="transparent" fill-opacity="0.2" class="leaflet-clickable" d="M1101 248L1101 244L1104 244L1105 245L1102 247z"/></g><g><path stroke-linejoin="round" stroke-linecap="round" fill-rule="evenodd" stroke="#999" stroke-opacity="1" stroke-width="1" stroke-dasharray="1,6" fill="transparent" fill-opacity="0.2" class="leaflet-clickable" d="M1114 278L1112 276L1114 278z"/></g><g><path stroke-linejoin="round" stroke-linecap="round" fill-rule="evenodd" stroke="#999" stroke-opacity="1" stroke-width="1" stroke-dasharray="1,6" fill="transparent" fill-opacity="0.2" class="leaflet-clickable" d="M1011 360L1012 359z"/></g><g><path stroke-linejoin="round" stroke-linecap="round" fill-rule="evenodd" stroke="#999" stroke-opacity="1" stroke-width="1" stroke-dasharray="1,6" fill="transparent" fill-opacity="0.2" class="leaflet-clickable" d="M1154 478L1155 479z"/></g><g><path stroke-linejoin="round" stroke-linecap="round" fill-rule="evenodd" stroke="#999" stroke-opacity="1" stroke-width="1" stroke-dasharray="1,6" fill="transparent" fill-opacity="0.2" class="leaflet-clickable" d="M1086 265L1086 263L1087 264z"/></g><g><path stroke-linejoin="round" stroke-linecap="round" fill-rule="evenodd" stroke="#999" stroke-opacity="1" stroke-width="1" stroke-dasharray="1,6" fill="transparent" fill-opacity="0.2" class="leaflet-clickable" d="M1108 277L1107 277z"/></g><g><path stroke-linejoin="round" stroke-linecap="round" fill-rule="evenodd" stroke="#999" stroke-opacity="1" stroke-width="1" stroke-dasharray="1,6" fill="transparent" fill-opacity="0.2" class="leaflet-clickable" d="M1086 274L1087 274z"/></g><g><path stroke-linejoin="round" stroke-linecap="round" fill-rule="evenodd" stroke="#999" stroke-opacity="1" stroke-width="1" stroke-dasharray="1,6" fill="transparent" fill-opacity="0.2" class="leaflet-clickable" d="M888 402L889 400L893 402L897 401L896 395L897 396L899 394L895 393L895 391L897 391L896 389L899 387L903 388L906 386L907 379L903 376L908 369L916 363L920 362L940 361L943 368L949 365L949 363L951 362L952 363L950 363L948 368L949 369L955 363L956 364L954 366L954 373L957 370L960 372L964 372L963 375L966 382L981 380L980 378L982 379L982 381L989 381L988 389L992 391L990 401L991 412L985 420L986 427L989 428L993 435L1003 443L1003 445L1005 444L1020 449L1021 453L1023 450L1027 452L1029 451L1029 456L1027 458L1023 458L1021 461L1023 465L1019 465L1018 473L1015 474L1010 482L1012 488L1005 491L999 488L995 494L997 496L994 498L994 501L1000 503L1001 502L1002 504L999 507L999 513L1004 523L1002 524L1003 525L999 524L992 530L993 532L991 536L994 540L985 540L983 536L981 536L982 533L979 530L971 534L971 529L969 526L970 524L968 520L965 521L963 518L959 522L954 522L952 520L951 522L949 521L953 517L953 513L943 513L938 509L938 507L941 506L941 502L943 499L938 497L936 498L931 495L926 499L924 497L924 490L922 486L915 485L913 487L914 488L912 493L907 489L902 489L892 497L894 497L891 501L889 500L890 494L883 494L880 486L881 482L878 479L874 480L875 476L873 470L870 470L867 466L869 463L866 462L866 448L863 447L862 441L865 438L864 437L866 433L867 434L865 432L866 430L868 430L866 430L866 427L872 427L870 424L873 423L873 421L875 420L878 422L886 417L885 414L889 412L888 411L891 402z"/></g><g><path stroke-linejoin="round" stroke-linecap="round" fill-rule="evenodd" stroke="#999" stroke-opacity="1" stroke-width="1" fill="transparent" fill-opacity="0.2" class="leaflet-clickable" d="M790 667L788 666L784 668L785 669L784 668L781 670L782 671L779 672L780 674L778 676L779 678L777 678L777 681L770 683L767 673L767 666L764 659L762 660L760 658L761 652L757 647L752 646L750 643L750 641L752 641L752 638L748 638L749 635L752 635L748 635L748 632L743 630L742 628L738 628L738 624L738 628L737 624L735 623L735 630L721 627L719 629L707 632L705 631L701 637L698 635L691 634L682 629L681 627L678 627L679 624L676 621L674 614L676 614L678 610L676 610L680 608L683 603L683 598L688 599L690 593L688 590L685 591L682 586L681 583L684 580L682 569L681 568L678 571L678 568L675 567L675 545L661 533L656 531L657 530L652 529L652 519L655 517L656 513L662 511L670 512L668 514L669 516L670 515L670 517L675 521L678 521L679 519L681 521L685 521L686 527L689 531L691 531L691 534L696 531L700 532L706 527L714 525L714 521L718 519L721 515L724 515L724 520L720 522L720 524L726 531L724 536L720 536L720 542L726 539L730 542L733 541L736 544L737 542L742 545L750 540L750 536L752 535L754 530L761 532L762 531L767 533L767 535L771 533L778 534L786 532L790 535L794 535L799 540L803 541L803 544L809 550L809 557L808 559L801 559L800 560L802 562L800 564L797 563L794 569L798 576L795 580L795 584L798 585L797 588L793 590L791 587L784 585L783 589L782 587L778 588L779 591L775 591L764 596L759 595L751 601L745 599L743 599L741 602L739 600L737 601L739 607L742 610L744 610L746 613L744 613L751 619L749 623L753 627L758 627L758 629L764 627L767 637L772 641L769 645L771 645L775 649L776 648L778 651L784 653L789 661L792 662L790 666z" stroke-dasharray="1,6"/></g><g><path stroke-linejoin="round" stroke-linecap="round" fill-rule="evenodd" stroke="#999" stroke-opacity="1" stroke-width="1" stroke-dasharray="1,6" fill="transparent" fill-opacity="0.2" class="leaflet-clickable" d="M809 550L803 544L803 541L799 541L794 535L790 535L782 531L778 534L771 533L767 535L767 533L763 531L761 532L755 530L750 536L750 540L742 545L738 542L737 544L733 541L731 542L726 539L721 542L719 541L720 537L722 535L724 536L726 531L726 529L720 525L720 522L724 520L724 515L721 515L715 520L714 525L708 526L700 532L694 531L692 534L691 531L686 528L685 521L683 522L679 519L675 521L670 517L670 515L669 516L669 505L670 506L672 498L675 493L683 489L688 496L688 503L690 505L691 503L696 501L696 499L699 498L701 501L703 501L703 503L712 500L715 495L714 493L710 492L711 491L707 486L707 484L711 480L714 481L714 479L716 479L720 475L727 477L734 473L737 475L741 475L745 480L748 478L750 480L751 479L752 481L755 480L762 474L763 470L767 471L771 469L774 463L777 462L777 459L783 455L786 457L786 463L790 470L789 473L793 481L790 482L792 485L794 484L799 491L796 492L796 499L803 496L806 500L821 505L822 504L824 506L824 510L827 507L832 508L838 506L841 512L845 512L844 513L846 517L844 521L842 523L837 521L831 526L831 538L826 538L823 541L819 539L816 541L812 541L809 548z"/></g><g><path stroke-linejoin="round" stroke-linecap="round" fill-rule="evenodd" stroke="#999" stroke-opacity="1" stroke-width="1" stroke-dasharray="1,6" fill="transparent" fill-opacity="0.2" class="leaflet-clickable" d="M1203 341L1209 339L1211 335L1215 333L1216 334L1216 330L1218 332L1221 332L1221 330L1223 333L1225 333L1225 336L1222 338L1226 346L1227 343L1232 342L1236 344L1236 347L1240 348L1248 348L1253 346L1255 348L1260 349L1268 346L1270 348L1271 346L1274 348L1275 350L1272 353L1271 351L1265 353L1265 357L1262 361L1263 363L1261 365L1264 365L1263 367L1267 371L1267 373L1265 373L1264 375L1262 374L1263 377L1261 378L1255 378L1254 381L1252 390L1263 390L1259 395L1260 398L1258 407L1255 408L1255 405L1249 405L1251 409L1239 415L1230 412L1226 413L1226 407L1224 409L1220 407L1223 402L1219 402L1218 405L1214 406L1214 410L1211 400L1208 400L1207 402L1191 408L1185 415L1177 417L1176 422L1178 426L1173 424L1173 422L1169 422L1171 424L1170 426L1167 426L1169 424L1166 424L1166 422L1162 420L1171 415L1168 415L1162 420L1155 419L1153 413L1151 412L1154 409L1152 407L1152 404L1147 406L1143 404L1139 397L1135 395L1136 387L1141 385L1142 382L1147 379L1150 381L1151 379L1152 383L1153 382L1158 384L1159 381L1164 383L1171 383L1173 379L1174 381L1177 379L1180 383L1182 379L1182 381L1185 381L1189 376L1187 376L1187 368L1190 366L1191 362L1197 358L1198 353L1201 351L1204 344L1203 343z"/></g><g><path stroke-linejoin="round" stroke-linecap="round" fill-rule="evenodd" stroke="#999" stroke-opacity="1" stroke-width="1" stroke-dasharray="1,6" fill="transparent" fill-opacity="0.2" class="leaflet-clickable" d="M1226 338L1227 336L1229 338z"/></g><g><path stroke-linejoin="round" stroke-linecap="round" fill-rule="evenodd" stroke="#999" stroke-opacity="1" stroke-width="1" stroke-dasharray="1,6" fill="transparent" fill-opacity="0.2" class="leaflet-clickable" d="M1233 423L1233 424z"/></g><g><path stroke-linejoin="round" stroke-linecap="round" fill-rule="evenodd" stroke="#999" stroke-opacity="1" stroke-width="1" stroke-dasharray="1,6" fill="transparent" fill-opacity="0.2" class="leaflet-clickable" d="M1163 426L1164 425z"/></g><g><path stroke-linejoin="round" stroke-linecap="round" fill-rule="evenodd" stroke="#999" stroke-opacity="1" stroke-width="1" stroke-dasharray="1,6" fill="transparent" fill-opacity="0.2" class="leaflet-clickable" d="M1175 428L1176 426z"/></g><g><path stroke-linejoin="round" stroke-linecap="round" fill-rule="evenodd" stroke="#999" stroke-opacity="1" stroke-width="1" stroke-dasharray="1,6" fill="transparent" fill-opacity="0.2" class="leaflet-clickable" d="M1254 344L1254 344z"/></g><g><path stroke-linejoin="round" stroke-linecap="round" fill-rule="evenodd" stroke="#999" stroke-opacity="1" stroke-width="1" fill="transparent" fill-opacity="0.2" class="leaflet-clickable" d="M997 555L995 564L989 575L990 580L986 582L986 587L982 585L975 592L973 602L975 602L972 604L976 607L973 608L971 612L964 612L963 608L961 607L955 608L955 606L952 604L949 598L951 598L953 595L953 588L951 588L950 583L946 584L939 577L935 578L936 579L933 583L930 583L925 579L925 577L922 579L916 578L910 580L909 578L903 579L903 577L901 577L900 574L904 573L903 570L912 568L909 561L913 557L913 551L918 544L919 540L910 538L909 532L912 529L911 527L914 525L916 518L919 517L920 514L926 513L927 508L933 508L937 504L939 506L939 511L943 513L953 512L953 517L949 521L951 522L951 520L954 522L959 522L963 518L964 521L968 520L970 524L969 526L971 528L970 534L978 530L981 531L981 536L983 536L985 545L984 552L986 553L986 555L989 555L991 553L991 555L993 553L996 555z" stroke-dasharray="1,6"/></g><g><path stroke-linejoin="round" stroke-linecap="round" fill-rule="evenodd" stroke="#099" stroke-opacity="1" stroke-width="1" fill="#099" fill-opacity="0.2" class="leaflet-clickable" d="M793 590L797 588L798 585L795 581L798 576L794 569L797 563L800 564L802 562L800 561L800 559L808 559L808 551L812 542L819 539L823 541L826 538L830 538L830 532L832 531L830 529L831 526L837 521L842 523L846 517L845 514L848 514L849 510L852 507L853 508L856 505L858 505L864 508L864 513L867 514L869 517L873 514L875 515L881 510L883 510L887 514L891 513L892 512L888 506L893 506L892 501L894 498L892 497L902 489L906 489L909 492L911 491L912 493L914 488L913 487L915 485L923 487L922 488L924 490L924 496L926 499L931 496L943 499L940 504L941 506L937 504L933 508L927 508L927 513L920 514L919 517L916 518L914 525L911 527L912 529L909 532L911 539L919 540L918 544L913 551L913 557L909 561L909 563L912 565L912 568L909 570L903 570L904 573L900 574L901 577L903 577L903 579L909 578L913 580L922 579L925 577L927 581L932 583L935 581L935 578L941 578L945 582L945 584L950 584L954 592L952 597L949 598L952 604L955 606L955 608L949 610L948 614L937 614L924 617L924 627L921 630L919 637L916 637L916 643L913 643L911 647L911 649L915 649L917 651L908 656L906 654L903 655L900 652L893 652L893 654L890 657L888 656L889 661L887 663L886 662L884 666L886 675L882 684L872 684L867 687L866 686L865 689L861 689L862 681L858 678L861 675L862 671L853 668L856 663L854 661L855 659L847 659L842 656L837 657L837 660L829 660L830 647L827 646L825 642L828 639L824 637L818 629L821 625L820 624L822 618L814 612L814 610L807 602L803 600L803 598L795 595L796 593L793 591z"/></g><g><path stroke-linejoin="round" stroke-linecap="round" fill-rule="evenodd" stroke="#999" stroke-opacity="1" stroke-width="1" stroke-dasharray="1,6" fill="transparent" fill-opacity="0.2" class="leaflet-clickable" d="M643 404L642 402L645 399L643 396L647 393L646 392L648 392L648 390L652 386L653 379L656 375L655 372L661 368L661 357L666 354L679 351L681 354L685 354L689 347L684 346L686 344L684 340L686 339L689 342L688 341L691 337L689 337L689 335L690 332L694 330L693 329L697 331L697 334L703 341L704 338L708 336L716 325L719 324L722 317L724 317L725 313L730 310L729 308L731 309L732 304L736 298L740 300L747 298L757 300L761 298L778 299L786 296L792 299L795 297L804 279L806 281L807 285L806 287L803 288L804 293L807 295L807 297L810 298L802 309L805 313L803 316L798 320L795 318L789 321L787 320L787 314L780 333L778 335L776 334L773 340L766 340L763 345L756 347L755 354L753 356L755 363L757 363L758 365L757 371L760 374L760 379L757 382L755 381L748 384L748 389L750 390L745 395L743 395L745 400L749 400L748 401L751 405L751 413L749 413L749 415L744 414L742 421L744 424L740 426L736 430L733 437L726 443L724 443L724 445L720 448L719 450L721 451L718 453L720 459L719 461L713 462L714 461L710 460L710 458L708 457L707 458L700 449L701 429L699 426L700 419L698 418L701 416L701 412L703 411L703 409L701 409L702 406L705 406L705 400L693 398L685 392L683 397L684 398L681 399L679 401L679 405L677 405L675 408L672 408L673 409L668 407L659 408L653 405L652 407L644 405z"/></g><g><path stroke-linejoin="round" stroke-linecap="round" fill-rule="evenodd" stroke="#999" stroke-opacity="1" stroke-width="1" fill="transparent" fill-opacity="0.2" class="leaflet-clickable" d="M643 404L650 405L652 407L652 405L659 408L668 407L673 409L672 408L675 408L677 405L679 405L679 401L684 398L684 392L686 392L693 398L703 399L706 401L704 403L705 406L703 406L701 409L703 409L703 411L701 411L701 416L699 418L699 426L701 429L700 448L705 454L706 458L708 457L710 458L710 460L714 461L712 465L709 467L708 471L704 471L703 473L694 476L684 489L679 489L679 492L669 497L665 502L651 508L647 507L642 512L636 512L631 518L626 517L619 521L619 519L617 519L617 522L614 523L610 530L606 532L603 531L606 520L605 514L609 509L613 508L614 499L615 500L617 494L616 481L615 478L611 476L611 472L608 472L606 474L605 473L606 471L604 465L600 462L601 457L599 457L597 452L600 451L599 448L600 449L603 446L605 438L614 429L617 422L620 422L622 420L625 421L634 417L636 415L635 413L637 409L640 406L642 406z" stroke-dasharray="1,6"/></g><g><path stroke-linejoin="round" stroke-linecap="round" fill-rule="evenodd" stroke="#999" stroke-opacity="1" stroke-width="1" fill="transparent" fill-opacity="0.2" class="leaflet-clickable" d="M618 520L619 521L617 522z" stroke-dasharray="1,6"/></g><g><path stroke-linejoin="round" stroke-linecap="round" fill-rule="evenodd" stroke="#999" stroke-opacity="1" stroke-width="1" stroke-dasharray="1,6" fill="transparent" fill-opacity="0.2" class="leaflet-clickable" d="M779 334L784 325L782 322L787 314L788 321L792 318L795 318L797 320L805 313L802 309L806 302L810 299L809 297L807 297L806 294L804 294L803 288L806 287L807 285L804 277L806 276L805 274L808 272L819 272L822 266L825 265L824 262L828 260L826 260L828 255L836 246L836 248L845 256L856 256L862 259L865 264L868 264L866 267L868 268L866 276L867 282L865 286L868 293L867 296L868 297L868 295L869 299L875 296L879 305L877 305L878 308L872 320L864 319L860 323L860 326L857 329L858 332L862 332L858 336L856 345L858 345L861 348L858 351L860 354L865 351L865 353L869 352L869 354L874 355L874 359L880 366L877 369L881 374L880 378L877 379L876 389L874 392L868 395L866 399L863 399L860 397L860 395L858 395L858 390L860 388L858 388L856 384L851 386L850 384L852 382L852 372L850 372L849 370L843 371L845 365L841 365L840 363L837 365L832 363L826 367L821 367L816 364L813 365L811 371L805 379L805 381L807 381L807 385L822 388L832 388L831 391L834 394L833 396L838 398L837 400L840 403L840 405L840 403L841 405L842 404L838 409L830 411L829 418L832 424L830 424L830 422L827 429L825 430L821 430L820 429L823 424L818 423L814 417L810 416L807 412L808 408L803 403L806 402L805 399L792 399L790 401L788 396L783 393L785 387L795 385L796 379L793 372L791 371L792 368L794 368L794 366L795 367L792 360L792 354L787 349L788 345L781 343L783 342L780 341L783 340L784 338L781 337L780 335z"/></g><g><path stroke-linejoin="round" stroke-linecap="round" fill-rule="evenodd" stroke="#999" stroke-opacity="1" stroke-width="1" stroke-dasharray="1,6" fill="transparent" fill-opacity="0.2" class="leaflet-clickable" d="M883 278L883 274L884 278z"/></g><g><path stroke-linejoin="round" stroke-linecap="round" fill-rule="evenodd" stroke="#999" stroke-opacity="1" stroke-width="1" fill="transparent" fill-opacity="0.2" class="leaflet-clickable" d="M701 637L700 647L697 648L697 651L699 653L697 659L698 660L693 664L689 664L689 666L685 670L683 667L678 670L675 668L673 664L667 665L665 663L663 663L661 667L648 669L637 665L635 670L629 667L620 667L613 656L613 648L611 642L608 639L601 636L598 636L596 638L594 634L596 631L591 630L593 626L588 625L584 622L585 620L579 620L575 623L570 621L566 624L562 620L562 618L560 620L557 619L559 618L559 616L556 615L557 612L562 609L561 606L558 604L559 601L561 599L566 599L566 593L570 590L576 579L579 579L581 577L581 574L583 574L583 576L585 573L596 572L605 565L604 559L610 553L610 551L613 549L619 539L626 539L636 536L636 532L637 530L638 531L639 527L643 525L651 525L651 523L653 530L656 530L661 533L675 545L675 567L678 571L681 567L681 569L682 568L684 579L681 583L684 591L688 590L690 593L688 599L686 599L685 597L684 599L683 598L683 603L680 608L676 610L678 610L676 614L674 614L676 621L679 623L678 627L681 627L683 630L691 634L698 635z" stroke-dasharray="1,6"/></g></svg>